<svg width="41" height="52" viewBox="0 0 41 52" fill="none" xmlns="http://www.w3.org/2000/svg">
<g clip-path="url(#clip0_237_136)">
<path fill-rule="evenodd" clip-rule="evenodd" d="M41 49.312V16.3978H26.5743C25.5428 16.3978 24.7079 15.5826 24.7079 14.576V0.5H2.24237C1.00552 0.5 0 1.48175 0 2.68861V49.312C0 50.5188 1.00562 51.5 2.24237 51.5H38.7565C39.9933 51.5 41 50.5188 41 49.312ZM28.4408 12.7549V3.07589L38.3597 12.7549H28.4408ZM33.8463 39.5502C33.8463 40.5556 33.0107 41.372 31.9793 41.372H9.01959C7.98926 41.372 7.15258 40.5557 7.15258 39.5502C7.15258 38.5438 7.98926 37.729 9.01959 37.729H31.9793C33.0108 37.729 33.8463 38.5438 33.8463 39.5502ZM33.8463 27.1187C33.8463 28.1247 33.0107 28.94 31.9793 28.94H9.01959C7.98926 28.94 7.15258 28.1247 7.15258 27.1187C7.15258 26.1128 7.98926 25.2976 9.01959 25.2976H31.9793C33.0108 25.2976 33.8463 26.1128 33.8463 27.1187Z" fill="#262626"/>
</g>
<defs>
<clipPath id="clip0_237_136">
<rect width="41" height="51" fill="white" transform="translate(0 0.5)"/>
</clipPath>
</defs>
</svg>
