<svg width="136" height="21" viewBox="0 0 136 21" fill="none" xmlns="http://www.w3.org/2000/svg">
<path fill-rule="evenodd" clip-rule="evenodd" d="M126.091 15.4243L127.695 17.5987C128.431 18.2842 127.96 19.272 127.186 19.485C127.016 19.5351 126.903 19.6157 126.903 19.7427V20.0201L135.697 20.0182V19.7104C135.697 19.6245 135.659 19.5225 135.565 19.4885C135.508 19.4741 135.451 19.4598 135.395 19.4419C134.489 19.1574 133.715 18.7261 132.979 17.8259L128.677 12.4409L130.602 10.1681C131.866 8.81688 133.47 7.89522 134.414 7.71089C134.602 7.67509 134.64 7.59456 134.64 7.44065V7.19906H134.338L129.375 7.20073H129.092C129.092 7.20073 129.092 7.32958 129.092 7.44055C129.092 7.57656 129.149 7.66604 129.262 7.7233C129.3 7.75194 129.3 7.75372 129.337 7.77879C129.715 7.99535 130.035 8.57339 129.186 9.51294C129.186 9.53441 128.582 10.2395 127.714 11.2274V11.2131L126.469 9.61671C125.714 8.91162 126.242 7.87719 127.035 7.70718C127.224 7.67318 127.261 7.59444 127.261 7.44053V7.19714L126.96 7.1988H118.675C118.675 7.1988 118.656 7.32943 118.656 7.4404C118.656 7.63547 118.807 7.73388 118.996 7.78221C119.883 8.06495 120.657 8.49627 121.393 9.3893L125.129 14.1962L122.714 16.9612C121.449 18.2963 120.374 19.3057 119.505 19.4864C119.317 19.524 119.222 19.6153 119.222 19.7423V20.0197L124.318 20.0178V19.7171C124.318 19.6295 124.28 19.5417 124.185 19.4934C124.11 19.4666 124.072 19.4523 124.034 19.4219C123.676 19.1928 123.393 18.6201 124.223 17.7038C124.223 17.6841 125.223 16.3974 126.091 15.4095V15.4238" fill="#0085FF"/>
<path d="M15.0713 4.45826C14.6184 3.42744 13.4483 2.98899 12.2029 2.98899H7.14542V9.4102L11.1272 9.41912C12.4859 9.41912 13.7126 9.18111 13.9579 8.21111C13.9767 8.09658 14.0711 8.0125 14.1843 8.0107L14.4108 8.01236V12.5347L14.1843 12.5364C14.0711 12.5381 13.9956 12.4397 13.939 12.3109C13.6182 11.4751 12.4104 11.0725 11.1272 11.0725H7.14542V16.2195C7.14542 17.7532 7.73043 18.1684 9.35332 18.1684H12.2029C13.5427 18.1684 15.0335 17.5456 15.543 16.3358C15.5808 16.2445 15.6563 16.1998 15.7695 16.1998H15.9582V20.0117H0.917969V19.7647C0.917969 19.6377 1.01233 19.5213 1.20102 19.507C2.12572 19.4426 2.84281 18.5335 2.84281 17.134V3.92826C2.84281 2.53055 2.12572 1.61607 1.20102 1.54984C1.01233 1.5355 0.917969 1.41918 0.917969 1.29215V1.04517H15.4864V4.5958H15.2977C15.2034 4.59222 15.109 4.53522 15.0713 4.45826Z" fill="#0085FF"/>
<path d="M25.0535 20.0115L25.0724 19.7646C25.0724 19.6375 24.9781 19.5212 24.7705 19.5069C23.8647 19.4424 23.1287 18.5226 23.1287 17.1249V3.43061C23.1287 2.37831 23.1287 0.300537 23.1287 0.300537L17.3164 1.04503V1.29201C17.3164 1.41905 17.4108 1.53536 17.5995 1.54969C18.5242 1.61591 19.2413 2.52505 19.2413 3.92276C19.2413 3.89053 19.2601 17.1302 19.2601 17.1302C19.2601 18.5261 18.5242 19.4424 17.6183 19.5069C17.4108 19.5212 17.3164 19.6375 17.3164 19.7646L17.3353 20.0115H25.0535Z" fill="#0085FF"/>
<path d="M102.05 20.0115L102.069 19.7646C102.069 19.6375 101.974 19.5212 101.767 19.5069C100.861 19.4424 100.125 18.5226 100.125 17.1249V3.43061C100.125 2.37831 100.125 0.300537 100.125 0.300537L94.3125 1.04503V1.29201C94.3125 1.41905 94.4069 1.53536 94.5955 1.54969C95.5014 1.61591 96.2374 2.52505 96.2374 3.92276C96.2374 3.89053 96.2562 17.1302 96.2562 17.1302C96.2562 18.5261 95.5203 19.4424 94.6145 19.5069C94.4069 19.5212 94.3125 19.6375 94.3125 19.7646V20.0115H102.05Z" fill="#0085FF"/>
<path d="M72.2127 6.98022C72.2127 6.98022 72.2127 8.79131 72.2127 9.84539C72.8166 8.78951 74.0055 6.73682 76.5719 6.73682C77.0437 6.73682 77.4211 6.83347 77.6853 6.92651L76.6097 10.4557C76.4776 10.4557 75.4774 10.4557 74.9679 10.4557C73.3072 10.4557 72.2694 11.4757 72.2694 12.7321V17.1239C72.2694 18.5216 73.0053 19.4432 73.9111 19.5076C74.1187 19.5219 74.213 19.6383 74.1942 19.7653V20.0123H66.5137V19.7653C66.5137 19.6383 66.608 19.5219 66.8156 19.5076C67.7214 19.4432 68.4574 18.5251 68.4574 17.1274C68.4574 16.1037 68.4574 11.8265 68.4574 10.5988C68.4574 9.20291 67.8346 8.36179 66.8156 8.22579C66.6646 8.2079 66.5137 8.05041 66.5137 7.91438C66.5137 7.77837 66.5137 7.72289 66.5137 7.72289L72.2127 6.98022Z" fill="#0085FF"/>
<path d="M118.389 20.0226H114.842C113.634 20.0226 113.275 19.3032 113.275 18.7036C111.709 19.8365 110.577 20.3215 108.539 20.3895C106.255 20.4575 104.161 19.1135 104.161 16.7064L104.142 10.6055C104.142 9.20608 103.406 8.29694 102.5 8.23072C102.311 8.21638 102.198 8.10006 102.217 7.9748V7.72604L108.161 6.98157V14.915C108.161 18.462 111.841 18.0844 113.275 17.084V10.602C113.275 9.20428 112.539 8.29694 111.634 8.23072C111.426 8.21638 111.332 8.10006 111.332 7.9748V7.72604L117.276 6.98157V17.1091C117.276 18.2026 117.502 19.3282 118.408 19.5108C118.559 19.5412 118.672 19.6038 118.672 19.8025C118.672 19.9081 118.672 20.0226 118.672 20.0226H118.389Z" fill="#0085FF"/>
<path d="M54.0223 10.9983V7.66424C54.0223 7.66424 51.9842 6.78552 48.7007 6.78552C44.417 6.78552 41.4542 8.8436 41.4164 13.8402C41.3787 17.7882 43.8131 20.4297 48.5308 20.4297C51.6446 20.4297 53.4562 18.9711 54.1167 18.3841C54.5318 18.0906 54.5318 17.8258 54.5318 17.4911C54.5318 17.1564 54.5507 16.5677 54.5507 16.5677C53.2863 17.4374 51.5691 18.0351 49.9084 18.0351C46.4928 18.0351 45.4926 15.7426 45.4926 13.1996C45.4926 12.1508 45.8511 8.57337 49.0404 8.53936C51.0973 8.53936 52.2673 9.12813 53.4751 11.0377C53.6826 11.3276 53.8147 11.3903 54.0223 11.3491L54.0223 10.9983Z" fill="#0085FF"/>
<path d="M85.7615 8.51083C83.2139 8.51083 82.4968 10.4007 82.4968 13.3733C82.4968 15.7696 82.5345 18.7744 85.7992 18.7744C88.9318 18.7064 88.8941 16.2063 88.8941 13.4735C88.8941 10.2826 88.0638 8.52873 85.7615 8.51083ZM85.535 6.71942C88.8375 6.66929 93.3288 7.46032 93.3665 13.3393C93.3665 17.9279 91.5549 20.428 85.5916 20.428C81.4589 20.428 78.0998 19.5475 78.0998 13.6417C78.0621 7.63572 82.6855 6.7552 85.535 6.7212V6.71942Z" fill="#0085FF"/>
<path d="M39.6985 13.1334H30.2819C30.0931 17.1833 32.4143 17.9922 34.6599 18.0262C36.5659 18.0262 38.019 17.407 39.2645 16.5784C39.2645 16.5784 39.2645 17.3945 39.2645 17.6039C39.2645 17.815 39.1513 17.9815 39.0946 18.0817C38.2454 19.1662 36.0753 20.4261 33.0937 20.4261C29.0175 20.4261 26.168 18.4342 26.168 13.8761C26.168 8.86867 29.093 6.80701 33.1691 6.78552C37.3774 6.78552 39.5476 8.66644 39.6985 12.7683V13.1334ZM33.1314 8.27094C31.8293 8.33893 30.6404 8.87762 30.2819 11.5459H35.8488C35.8866 8.80961 34.4335 8.33893 33.0937 8.27094H33.1314Z" fill="#0085FF"/>
<path d="M65.1553 7.79955V7.21612H60.8149V3.40601L55.0781 9.04156H56.9086V16.5133C56.9086 17.7875 57.3238 20.4737 61.1169 20.5077C62.7964 20.5077 63.9852 19.9386 64.9099 19.1673C65.2496 18.906 65.2496 18.7396 65.2685 18.4801C65.2873 18.2564 65.2685 17.9951 65.2685 17.5566C62.8719 18.838 60.8149 18.0327 60.8149 15.5469V9.04156H63.8909C64.4948 8.94849 65.1553 8.63532 65.1553 7.79955Z" fill="#0085FF"/>
</svg>
