<svg width="28" height="28" viewBox="0 0 28 28" fill="none" xmlns="http://www.w3.org/2000/svg">
<path fill-rule="evenodd" clip-rule="evenodd" d="M23.0618 5.55211C23.3396 5.43517 23.6437 5.39484 23.9425 5.43532C24.2412 5.47579 24.5236 5.59559 24.7603 5.78225C24.997 5.96891 25.1794 6.2156 25.2884 6.49665C25.3974 6.7777 25.4291 7.08283 25.3802 7.38029L22.8302 22.8478C22.5828 24.3398 20.9458 25.1954 19.5774 24.4522C18.4329 23.8305 16.7329 22.8725 15.2038 21.873C14.4392 21.3727 12.0972 19.7705 12.3851 18.6304C12.6324 17.6556 16.5676 13.9925 18.8163 11.8147C19.6989 10.9591 19.2964 10.4655 18.2541 11.2525C15.6659 13.2066 11.5103 16.1782 10.1364 17.0147C8.92434 17.7523 8.29246 17.8782 7.5369 17.7523C6.15846 17.5229 4.88009 17.1677 3.8367 16.7348C2.42678 16.1501 2.49537 14.2118 3.83558 13.6474L23.0618 5.55211Z" fill="white"/>
</svg>
