<svg width="28" height="28" viewBox="0 0 28 28" fill="none" xmlns="http://www.w3.org/2000/svg">
<g clip-path="url(#clip0_237_126)">
<path d="M18.5617 3.94434C20.0527 3.94434 21.4826 4.53662 22.5369 5.59089C23.5911 6.64516 24.1834 8.07506 24.1834 9.56603V18.5607C24.1834 20.0517 23.5911 21.4816 22.5369 22.5359C21.4826 23.5901 20.0527 24.1824 18.5617 24.1824H9.56701C8.07604 24.1824 6.64614 23.5901 5.59187 22.5359C4.5376 21.4816 3.94531 20.0517 3.94531 18.5607V9.56603C3.94531 8.07506 4.5376 6.64516 5.59187 5.59089C6.64614 4.53662 8.07604 3.94434 9.56701 3.94434H18.5617ZM14.0644 9.56603C12.8716 9.56603 11.7277 10.0399 10.8843 10.8833C10.0408 11.7267 9.56701 12.8706 9.56701 14.0634C9.56701 15.2562 10.0408 16.4001 10.8843 17.2435C11.7277 18.0869 12.8716 18.5607 14.0644 18.5607C15.2571 18.5607 16.4011 18.0869 17.2445 17.2435C18.0879 16.4001 18.5617 15.2562 18.5617 14.0634C18.5617 12.8706 18.0879 11.7267 17.2445 10.8833C16.4011 10.0399 15.2571 9.56603 14.0644 9.56603ZM14.0644 11.8147C14.6607 11.8147 15.2327 12.0516 15.6544 12.4733C16.0761 12.895 16.313 13.467 16.313 14.0634C16.313 14.6598 16.0761 15.2317 15.6544 15.6534C15.2327 16.0751 14.6607 16.3121 14.0644 16.3121C13.468 16.3121 12.896 16.0751 12.4743 15.6534C12.0526 15.2317 11.8157 14.6598 11.8157 14.0634C11.8157 13.467 12.0526 12.895 12.4743 12.4733C12.896 12.0516 13.468 11.8147 14.0644 11.8147ZM19.1239 7.87952C18.8257 7.87952 18.5397 7.99798 18.3289 8.20883C18.118 8.41969 17.9995 8.70567 17.9995 9.00386C17.9995 9.30205 18.118 9.58803 18.3289 9.79889C18.5397 10.0097 18.8257 10.1282 19.1239 10.1282C19.4221 10.1282 19.7081 10.0097 19.9189 9.79889C20.1298 9.58803 20.2482 9.30205 20.2482 9.00386C20.2482 8.70567 20.1298 8.41969 19.9189 8.20883C19.7081 7.99798 19.4221 7.87952 19.1239 7.87952Z" fill="white"/>
</g>
<defs>
<clipPath id="clip0_237_126">
<rect width="26.9841" height="26.9841" fill="white" transform="translate(0.572266 0.571442)"/>
</clipPath>
</defs>
</svg>
