<svg width="21" height="21" viewBox="0 0 21 21" fill="none" xmlns="http://www.w3.org/2000/svg">
<path fill-rule="evenodd" clip-rule="evenodd" d="M20.5682 0.627808H0.0175781V20.108H20.5682V0.627808ZM13.0009 19.0038V1.73019C16.926 2.83262 19.7944 6.30452 19.7944 10.3616C19.7944 14.433 16.926 17.8888 13.0009 19.0038ZM0.810163 9.94643C1.03661 5.16631 5.20713 1.36335 10.3023 1.36335C10.9062 1.36335 11.5101 1.41883 12.0951 1.52619C12.0951 6.2007 8.11328 9.94643 3.16903 9.94643H0.810163ZM3.16903 10.7875C8.11328 10.7875 12.0951 14.5261 12.0951 19.2095C11.5101 19.3151 10.9062 19.3706 10.3023 19.3706C5.20713 19.3706 1.03661 15.5677 0.810163 10.7875H3.16903Z" fill="#0085FF"/>
</svg>
