<svg width="330" height="47" viewBox="0 0 330 47" fill="none" xmlns="http://www.w3.org/2000/svg">
<path d="M11.3726 3.64857C10.2144 5.65514 9.26643 7.48498 9.26643 7.71495C9.26643 7.94456 10.0996 9.54627 11.118 11.2737C13.8651 15.9346 14.081 15.5109 8.89817 15.6307L4.4013 15.7349L0 23.3822L4.37363 30.8942L8.84947 30.9981C11.5922 31.0617 13.3253 31.2484 13.3253 31.4806C13.3253 31.6891 12.4006 33.4343 11.27 35.3588C10.1398 37.2833 9.26827 39.0702 9.33284 39.3298C9.39778 39.5893 10.3642 41.4129 11.4804 43.3817L13.5098 46.9623L22.4696 46.9778L24.75 43.0604C26.0045 40.9056 27.1192 39.2318 27.2273 39.3401C27.3358 39.4488 28.3627 41.17 29.5092 43.1651L31.5943 46.7929L40.5371 47L45.113 39.1401L42.8717 35.2597C41.639 33.1252 40.6305 31.3116 40.6305 31.2292C40.6305 31.1467 42.6924 31.0791 45.2126 31.0791H49.7947L54.1857 23.4111L49.6707 15.5804L40.6608 15.3652L45.1082 7.76487L40.815 0.0451087L31.5903 0.0284683L27.0753 7.85472L22.7046 0.205944L13.4788 0L11.3726 3.64857Z" fill="#0085FF"/>
<path d="M71.9937 41.125L84.3188 7.05H95.0505L107.376 41.125H96.7376L95.0036 35.438H84.1782L82.4443 41.125H71.9937ZM89.6612 17.86L86.4745 28.106H92.7542L89.6612 17.86Z" fill="#0085FF"/>
<path d="M123.339 12.925C117.716 12.925 114.67 10.575 114.342 7.05H119.872C120.106 8.178 121.277 8.742 123.386 8.742C125.448 8.742 126.714 8.178 126.901 7.05H132.431C132.056 10.575 129.104 12.925 123.339 12.925ZM119.075 41.125H110.405V15.839H119.075V29.845L127.745 15.839H136.414V41.125H127.745V27.354L119.075 41.125Z" fill="#0085FF"/>
<path d="M153.794 14.852C161.198 14.852 165.837 19.881 166.587 25.521H157.964C157.73 23.829 156.418 21.855 154.169 21.855C150.748 21.855 149.857 24.722 149.857 28.294C149.857 31.866 150.935 34.78 154.122 34.78C156.512 34.78 157.871 32.853 158.105 31.208H166.728C165.744 36.848 161.104 41.783 153.747 41.783C144.936 41.783 140.297 36.284 140.297 28.341C140.297 20.304 145.733 14.852 153.794 14.852Z" fill="#0085FF"/>
<path d="M195.513 41.125H180.751V7.05H208.12V15.463H190.546V19.599H196.029C203.996 19.599 209.9 21.761 209.9 30.08C209.9 38.352 203.996 41.125 195.513 41.125ZM190.546 26.508V33.135H195.373C198.185 33.135 199.778 32.007 199.778 29.704C199.778 27.495 198.185 26.508 195.513 26.508H190.546Z" fill="#0085FF"/>
<path d="M226.345 41.783C217.441 41.783 212.333 36.096 212.333 28.153C212.333 20.069 218.285 14.899 225.924 14.899C234.734 14.899 240.217 21.855 239.608 30.644H221.425C221.753 33.229 223.534 34.874 226.486 34.874C228.314 34.874 230.188 33.981 230.751 32.618H239.561C238.436 36.331 234.218 41.783 226.345 41.783ZM226.533 21.338C224.565 21.338 222.175 22.419 221.565 25.427H231.313C231.079 22.419 228.548 21.338 226.533 21.338Z" fill="#0085FF"/>
<path d="M256.515 12.925C250.892 12.925 247.846 10.575 247.518 7.05H253.048C253.282 8.178 254.453 8.742 256.562 8.742C258.624 8.742 259.89 8.178 260.077 7.05H265.607C265.232 10.575 262.28 12.925 256.515 12.925ZM252.251 41.125H243.581V15.839H252.251V29.845L260.921 15.839H269.59V41.125H260.921V27.354L252.251 41.125Z" fill="#0085FF"/>
<path d="M286.501 41.736C279.378 41.736 273.473 37.036 273.473 25.756V24.957C273.707 15.745 276.8 7.943 288.985 6.956L297.186 6.251V13.959L287.11 14.993C283.408 15.369 280.502 16.732 280.128 21.432C281.768 18.565 285.189 17.625 288.376 17.625C294.515 17.625 300.044 21.667 300.044 29.328C300.044 37.6 293.062 41.736 286.501 41.736ZM286.501 34.733C288.469 34.733 290.484 33.276 290.484 29.328C290.484 25.145 288.469 23.923 286.407 23.923C284.392 23.923 282.658 25.192 282.658 29.328C282.658 33.041 284.486 34.733 286.501 34.733Z" fill="#0085FF"/>
<path d="M312.661 41.125H303.991V15.839H312.661V29.845L321.33 15.839H330V41.125H321.33V27.354L312.661 41.125Z" fill="#0085FF"/>
</svg>
